<?xml version="1.0" encoding="UTF-8" standalone="no"?> <!-- Created with Vectornator for iOS (http://vectornator.io/) --><!DOCTYPE svg PUBLIC "-//W3C//DTD SVG 1.1//EN" "http://www.w3.org/Graphics/SVG/1.1/DTD/svg11.dtd">
<svg style="fill-rule:evenodd;clip-rule:evenodd;stroke-linecap:round;stroke-linejoin:round;" xmlns:vectornator="http://vectornator.io" xmlns:xlink="http://www.w3.org/1999/xlink" xmlns="http://www.w3.org/2000/svg" xml:space="preserve" version="1.1" viewBox="0 0 1024 1024">
<metadata>
<vectornator:setting key="DisplayWhiteBackground" value="0"/>
<vectornator:setting key="RulersVisible" value="1"/>
<vectornator:setting key="GridSpacing" value="36"/>
<vectornator:setting key="Units" value="Pixels"/>
<vectornator:setting key="New" value="1"/>
<vectornator:setting key="DynamicGuides" value="0"/>
<vectornator:setting key="SnapToPoints" value="0"/>
<vectornator:setting key="SnapToGrid" value="0"/>
<vectornator:setting key="SnapToGuides" value="1"/>
<vectornator:setting key="SnapToEdges" value="0"/>
</metadata>
<defs/>
<g id="Layer 1" vectornator:layerName="Layer 1">
<path d="M144.341+626.481C135.77+627.063+128.912+620.661+128.34+611.931C127.769+603.2+134.055+596.216+142.626+595.634C142.626+595.634+188.917+592.142+212.347+594.47C236.35+596.216+259.781+601.454+282.64+606.692C309.5+612.513+336.36+618.333+362.648+618.333C389.508+618.333+415.796+610.767+443.227+603.782C467.229+597.38+490.66+590.978+515.234+589.232C536.379+587.486+577.526+589.814+577.526+589.814C585.527+590.396+592.385+597.38+591.813+605.528C591.242+613.677+584.384+620.661+575.812+620.079C575.812+620.079+536.951+618.333+517.52+619.497C495.232+621.243+472.373+627.645+450.085+633.465C421.511+641.031+392.936+648.598+362.076+649.179C332.359+649.762+303.785+643.359+274.639+636.957C252.923+631.719+231.206+627.063+208.919+625.317C188.345+623.571+144.341+626.481+144.341+626.481Z" fill-rule="evenodd" fill="#093951" opacity="1"/>
<path d="M148.341+560.713C148.341+556.639+151.77+552.565+156.342+552.565C160.342+552.565+163.771+555.475+163.771+560.713L163.771+583.412C163.771+587.486+160.914+590.978+155.77+590.978C151.77+590.978+148.341+588.068+148.341+582.83L148.341+560.713Z" fill-rule="evenodd" fill="#093951" opacity="1"/>
<path d="M224.349+561.877C224.349+557.803+227.206+554.311+232.349+554.311C236.35+554.311+239.779+557.221+239.779+562.459L239.779+585.158C239.779+589.232+236.35+593.306+232.349+593.306C228.349+593.306+224.349+589.232+224.349+585.158L224.349+561.877Z" fill-rule="evenodd" fill="#093951" opacity="1"/>
<path d="M294.07+573.517C294.07+569.443+296.927+565.951+302.07+565.951C306.071+565.951+309.5+568.861+309.5+574.1L309.5+596.798C309.5+600.872+306.071+604.946+302.07+604.946C298.07+604.946+294.07+601.454+294.07+596.798L294.07+573.517Z" fill-rule="evenodd" fill="#093951" opacity="1"/>
<path d="M428.369+568.861C428.369+564.787+431.797+560.713+436.369+560.713C440.37+560.713+443.799+563.623+443.799+568.861L443.799+591.56C443.799+595.634+440.941+599.126+435.798+599.126C431.797+599.126+428.369+596.216+428.369+590.978L428.369+568.861Z" fill-rule="evenodd" fill="#093951" opacity="1"/>
<path d="M494.089+556.057C494.089+551.983+498.09+547.909+502.09+547.909C506.09+547.909+510.091+551.983+510.091+556.057L510.091+578.756C510.091+582.83+506.662+586.322+502.09+586.322C498.09+586.322+494.089+582.83+494.089+578.756L494.089+556.057Z" fill-rule="evenodd" fill="#093951" opacity="1"/>
<path d="M559.238+554.893C559.238+550.819+562.667+547.327+567.239+547.327C571.24+547.327+575.24+550.819+575.24+555.475L575.24+578.174C575.24+582.248+571.24+586.322+567.239+586.322C563.239+586.322+559.238+582.83+559.238+578.174L559.238+554.893Z" fill-rule="evenodd" fill="#093951" opacity="1"/>
<path d="M368.391+178.891C327.816+178.891+286.635+189.95+254.632+210.902C170.052+266.776+131.224+485.138+131.224+485.721C131.224+486.885+131.224+487.321+131.224+487.903C131.796+494.305+136.903+499.543+143.192+499.543L366.425+500.457C366.523+492.309+368.654+484.574+372.14+476.99L156.942+476.263C166.657+428.538+202.552+273.76+267.13+231.273C295.704+212.648+332.353+203.445+368.928+203.445C404.932+204.027+440.29+213.194+467.15+231.818C496.912+252.588+518.389+299.686+533.407+348.04C536.459+346.099+538.511+344.529+544.66+340.946C549.009+339.623+550.958+339.163+553.409+338.582C536.922+286.547+513.337+235.141+479.294+211.448C449.005+189.331+408.395+178.891+368.391+178.891Z" fill-rule="evenodd" fill="#093951" opacity="1"/>
<path d="M436.792+693.977L143.724+696.887C137.439+696.887+132.332+702.16+131.76+707.98C132.332+709.727+132.938+712.055+134.081+713.801C138.653+720.785+183.836+799.904+224.983+819.111C263.272+837.153+306.562+845.842+349.995+845.842C393.428+846.424+438.112+837.84+476.973+820.379C504.542+808.25+530.573+776.821+550.729+749.449C549.317+750.212+547.706+750.718+545.906+750.177C544.506+749.752+543.831+749.385+542.334+748.174C542.288+748.134+542.385+748.035+542.334+747.994C541.888+747.627+541.688+747.569+541.802+747.627C538.419+745.835+534.802+745.229+527.693+745.264C527.155+745.27+525.469+745.264+524.658+745.264C507.245+767.428+487.197+790.301+467.864+798.74C431.289+815.036+390.033+822.562+349.458+822.562C309.454+821.98+269.49+814.489+234.63+798.193C208.913+786.553+179.693+744.03+164.263+720.168L468.578+717.258C468.464+716.961+468.11+716.85+468.041+716.53C466.921+711.286+457.617+705.251+450.719+705.251C447.565+705.251+445.004+702.643+445.004+699.431C445.004+699.017+445.284+698.726+445.364+698.342C444.159+698.051+443.039+697.615+441.61+697.615C439.284+697.615+437.684+696.008+436.792+693.977Z" fill-rule="evenodd" fill="#093951" opacity="1"/>
<path d="M369.048+454.012C419.436+349.836+542.3+305.161+643.475+354.229C741.102+401.573+783.449+519.425+739.765+622.186L759.538+631.806C767.522+615.359+786.941+608.322+802.914+616.098C802.919+616.098+802.919+616.098+802.919+616.104L937.915+681.807C953.888+689.583+960.369+709.22+952.385+725.668C952.385+725.674+952.385+725.674+952.385+725.674L942.75+745.526C934.767+761.974+915.348+769.005+899.375+761.229L764.384+695.525C748.406+687.75+741.925+668.112+749.909+651.665C749.909+651.659+749.909+651.659+749.914+651.659L730.141+642.032C674.57+743.524+549.735+781.693+451.308+727.28C356.236+674.73+320.038+554.474+369.048+454.012ZM774.002+675.667L908.998+741.371C914.325+743.961+920.794+741.621+923.457+736.138L933.086+716.274C935.744+710.797+933.584+704.256+928.269+701.666L793.273+635.956C787.941+633.512+781.575+635.816+778.82+641.194L769.185+661.058C766.533+666.535+768.688+673.071+774.002+675.667ZM470.321+711.967C560.844+756.026+670.907+716.181+716.14+622.966C761.378+529.75+724.666+418.469+634.137+374.407C543.614+330.347+433.558+370.19+388.319+463.4C343.206+556.622+379.889+667.816+470.321+711.967Z" fill-rule="evenodd" fill="#093951" opacity="1"/>
</g>
</svg>
